{"title":"How.Its.Made.S25E06.HDTV.XviD-AFG","uid":11894172,"size":220754702,"categoryP":"other","categoryS":"other","magnet":"?xt=urn:btih:e98a7ab9dc8b43a83eeff36946f2983fd6d1343e&amp;dn=How.Its.Made.S25E06.HDTV.XviD-AFG&amp;tr=udp%3A%2F%2Ftracker.openbittorrent.com%3A80&amp;tr=udp%3A%2F%2Fopen.demonii.com%3A1337&amp;tr=udp%3A%2F%2Ftracker.coppersurfer.tk%3A6969&amp;tr=udp%3A%2F%2Fexodus.desync.com%3A6969","seeders":2,"leechers":0,"uploader":"toots2boots","files":2,"time":1431105323,"description":"Television series that documents how various everyday products are made.\nS25E06\nCar Headlamps, Directional Drills, Pet Combs, and Stained Glass Restoration\nOn this episode of How It's Made, we'll see how car headlamps, directional drills, pet grooming combs are made, and watch first-hand while stained glass is restored\n\n\nGeneral\nComplete name                            : G:Torrent uploadHow it's MadeHow.Its.Made.S25E06.HDTV.XviD-AFGHow.Its.Made.S25E06.HDTV.XviD-AFG.avi\nFormat                                   : AVI\nFormat/Info                              : Audio Video Interleave\nFile size                                : 211 MiB\nDuration                                 : 21mn 5s\nOverall bit rate mode                    : Variable\nOverall bit rate                         : 1 396 Kbps\n\nVideo\nID                                       : 0\nFormat                                   : MPEG-4 Visual\nFormat profile                           : Advanced Simple@L5\nFormat settings, BVOP                    : 2\nFormat settings, QPel                    : No\nFormat settings, GMC                     : No warppoints\nFormat settings, Matrix                  : Default (H.263)\nCodec ID                                 : XVID\nCodec ID/Hint                            : XviD\nDuration                                 : 21mn 5s\nBit rate                                 : 1 254 Kbps\nWidth                                    : 640 pixels\nHeight                                   : 360 pixels\nDisplay aspect ratio                     : 16:9\nFrame rate                               : 29.970 fps\nColor space                              : YUV\nChroma subsampling                       : 4:2:0\nBit depth                                : 8 bits\nScan type                                : Progressive\nCompression mode                         : Lossy\nBits/(Pixel*Frame)                       : 0.182\nStream size                              : 189 MiB (90%)\nWriting library                          : XviD 64\n\nAudio\nID                                       : 1\nFormat                                   : MPEG Audio\nFormat version                           : Version 1\nFormat profile                           : Layer 3\nMode                                     : Joint stereo\nMode extension                           : MS Stereo\nCodec ID                                 : 55\nCodec ID/Hint                            : MP3\nDuration                                 : 21mn 5s\nBit rate mode                            : Variable\nBit rate                                 : 128 Kbps\nChannel(s)                               : 2 channels\nSampling rate                            : 48.0 KHz\nCompression mode                         : Lossy\nStream size                              : 19.3 MiB (9%)\nAlignment                                : Aligned on interleaves\nInterleave, duration                     : 24 ms (0.72 video frame)\nInterleave, preload duration             : 178 ms\nTitle                                    : How.Its.Made.S25E06.HDTV.XviD-AFG_360p.audio","torrent":{"xt":"urn:btih:e98a7ab9dc8b43a83eeff36946f2983fd6d1343e","amp;dn":"How.Its.Made.S25E06.HDTV.XviD-AFG","amp;tr":["udp%3A%2F%2Ftracker.openbittorrent.com%3A80","udp%3A%2F%2Fopen.demonii.com%3A1337","udp%3A%2F%2Ftracker.coppersurfer.tk%3A6969","udp%3A%2F%2Fexodus.desync.com%3A6969"],"infoHash":"e98a7ab9dc8b43a83eeff36946f2983fd6d1343e","infoHashBuffer":{"type":"Buffer","data":[233,138,122,185,220,139,67,168,62,239,243,105,70,242,152,63,214,209,52,62]},"announce":[],"urlList":[]}}